<?xml version="1.0" standalone="no"?><!DOCTYPE svg PUBLIC "-//W3C//DTD SVG 1.1//EN" "http://www.w3.org/Graphics/SVG/1.1/DTD/svg11.dtd"><svg class="icon" width="200px" height="200.00px" viewBox="0 0 1024 1024" version="1.1" xmlns="http://www.w3.org/2000/svg"><path fill="#333333" d="M511.116428 566.518461a59.98601 59.98601 0 0 1-7.939325 0h-5.469313l10.938626 2.117154H513.762869l5.469313-1.235006a60.691727 60.691727 0 0 1-8.115754-0.882148z m0 0a59.98601 59.98601 0 0 1-7.939325 0h-5.469313l10.938626 2.117154H513.762869l5.469313-1.235006a60.691727 60.691727 0 0 1-8.115754-0.882148z m0 0a59.98601 59.98601 0 0 1-7.939325 0h-5.469313l10.938626 2.117154H513.762869l5.469313-1.235006a60.691727 60.691727 0 0 1-8.115754-0.882148z m0 0a59.98601 59.98601 0 0 1-7.939325 0h-5.469313l10.938626 2.117154H513.762869l5.469313-1.235006a60.691727 60.691727 0 0 1-8.115754-0.882148zM505.823545 533.879015H514.468587l3.352159-0.882147a27.522993 27.522993 0 0 1-11.997201 0.882147zM388.321537 613.448692l-0.882147 2.999301V617.50657l1.587865-4.234307z m200.953133 102.505505v1.235006l6.880748 6.880749z m8.115754 10.056478l5.469313 7.057178z"  /><path fill="#333333" d="M589.27467 715.954197v1.235006l6.880748 6.880749zM342.273453 192.311618c-1.235006 1.940724-2.293583 4.057877-3.528588 6.35146l3.705018-6.35146a4.234307 4.234307 0 0 0 0-1.235006z m5.116454 194.072385a113.091271 113.091271 0 0 1 11.820773 9.880048 94.742609 94.742609 0 0 0-11.820773-9.703619z m23.465116-179.252312l-1.764295 3.17573 1.940724-3.17573 2.117153-3.705018z m0-114.855565a35.285888 35.285888 0 0 0-6.175031 1.940724l6.35146-1.764295 5.998601-1.411435zM380.735071 133.737044v1.235006-1.235006a10.762196 10.762196 0 0 0 1.235006-1.764294z m57.868857 583.0993l-12.52649 16.05508 12.702919-16.05508L486.592736 655.438899z m52.928832 262.350578l-3.881448-11.291484 3.705018 11.291484 4.234307 12.70292z m8.645042-446.542913h-1.764294 5.292883z m47.988808-343.331691h-4.234306l4.234306 0.882147h3.17573z m4.587166-31.933729l-11.467914-1.940724c3.881448 0 7.586466 1.587865 11.467914 2.117154h6.35146z m-23.817975 834.511253l52.928832-156.669343z m74.100365-260.233425v0.882148-1.058577z m-17.642944-227.946836l-2.9993 2.293582 2.9993-2.117153a141.143552 141.143552 0 0 0 11.820773-9.174331c-3.881448 3.17573-7.762895 6.17503-11.820773 8.997902z m0 103.74051l38.990906-31.933728z m55.045985 9.880049l-0.882147-1.940724V617.50657l-37.932329 114.149847z m8.821472-196.013108c-0.882147 2.293583-1.764294 4.763595-2.822871 7.057178 1.058577-2.293583 2.117153-4.587165 2.999301-6.880749a39.696624 39.696624 0 0 1 0-3.881447z m9.52719-206.598875a10.232908 10.232908 0 0 0 0-2.470012 10.056478 10.056478 0 0 1 0 2.470012 34.227311 34.227311 0 0 0 0.882147 3.528589 20.818674 20.818674 0 0 0 0-3.528589z m5.116454 66.513899a34.050882 34.050882 0 0 0 0 4.234307v-4.234307zM669.020777 635.149514l-54.516697 164.432238 54.693126-164.432238z m19.407238-262.703437l-1.235006 2.117153a6.35146 6.35146 0 0 0 1.411436-2.117153l2.646441-5.469313c-0.882147 2.117153-1.940724 3.528589-2.822871 5.645742z m5.645742-148.553589a1.587865 1.587865 0 0 1 0 0.882148v-4.587166c0.176429 1.411436 0.176429 2.646442 0 3.881448z m7.233607 94.56618l1.058577-1.764294a11.820772 11.820772 0 0 1-1.058577 1.940724z"  /><path fill="#333333" d="M921.138447 720.541363c-51.340967-54.340268-142.378558-97.212622-250.882664-117.502008l-23.288686-62.103162v-50.988109A205.540298 205.540298 0 0 0 680.66512 431.902798v-2.293582a31.757299 31.757299 0 0 1 2.822871-8.468613l1.058577-1.587865a99.859063 99.859063 0 0 1 8.821472-7.233607A74.629653 74.629653 0 0 0 717.009585 388.148297a146.083577 146.083577 0 0 0 15.70222-88.21472 72.5125 72.5125 0 0 0-8.645043-24.523692 18.87795 18.87795 0 0 0-3.352159-4.940024c0-2.470012 1.587865-5.116454 2.293583-7.762896s1.940724-9.880049 2.822871-17.642944v-10.056478a148.906448 148.906448 0 0 1 0-15.349361c7.762895-48.870955 9.35076-96.154045-24.700122-138.320681A221.418948 221.418948 0 0 0 528.406513 0.003529c-46.048084 0-131.087074 13.408637-170.25441 62.632451-56.63385 17.642944-68.807482 94.036892-61.926734 156.492913q1.411436 11.644343 2.646442 22.759398c0 4.763595 1.058577 9.703619 2.117153 14.996503a42.519495 42.519495 0 0 0-11.997202 35.285888 54.516697 54.516697 0 0 1 0 7.586466 164.608668 164.608668 0 0 0 17.642944 87.156143 73.747506 73.747506 0 0 0 21.171533 25.22941 104.446229 104.446229 0 0 1 8.645043 7.233607 10.409337 10.409337 0 0 1 2.293583 2.999301 28.22871 28.22871 0 0 0 1.411435 4.587165v4.234307l2.293583 2.293582a208.01031 208.01031 0 0 0 39.873053 64.220317v42.519495l-22.935827 60.691727h-1.411435v1.587865C247.001556 623.152312 154.376099 666.377525 102.858703 722.129228l-4.410736 4.587165V1023.294282h827.101216V725.304958zM348.624913 105.861193a38.990906 38.990906 0 0 1 9.703619-8.115754 29.287287 29.287287 0 0 1 5.822172-2.822872 35.285888 35.285888 0 0 1 6.17503-1.940723l6.175031-1.235006 3.705018-5.292884a65.808181 65.808181 0 0 1 11.115055-12.35006 95.801186 95.801186 0 0 1 14.643643-10.938626 176.42944 176.42944 0 0 1 36.697324-17.642944 276.464933 276.464933 0 0 1 85.03899-13.585067 191.602372 191.602372 0 0 1 133.909945 53.81098 203.246715 203.246715 0 0 1 14.467214 15.70222 85.391849 85.391849 0 0 1 5.822172 8.115754 88.21472 88.21472 0 0 1 8.645043 16.584367c1.058577 2.822871 2.117153 5.822172 2.9993 8.821472a147.671442 147.671442 0 0 1 4.763595 47.28309c0 10.762196-1.587865 21.877251-2.999301 33.345165a36.344465 36.344465 0 0 0 0 4.587165v4.587166a1.587865 1.587865 0 0 0 0-0.882148 172.724422 172.724422 0 0 0-3.17573-17.642944 44.636648 44.636648 0 0 0-6.351459-14.467214 56.81028 56.81028 0 0 0-33.345165-23.112256 238.003315 238.003315 0 0 0-70.571776-9.174331H552.930205c-3.881448 0-7.586466-1.235006-11.467914-2.117154a207.833881 207.833881 0 0 1-35.285888-11.291484L500.530661 141.147081a217.5375 217.5375 0 0 1-26.111557-15.70222L471.419804 123.504137a77.805383 77.805383 0 0 0-35.285888-17.642944 40.755201 40.755201 0 0 0-6.52789 0 55.045985 55.045985 0 0 0-33.345164 11.997202 52.928832 52.928832 0 0 0-6.704319 5.822171l-2.9993 3.17573a27.170134 27.170134 0 0 0-2.999301 3.35216l-1.411435 1.764294a10.762196 10.762196 0 0 1-1.235006 1.764294l-0.17643 1.235006a16.584367 16.584367 0 0 0-1.587865 2.117154l-2.822871 4.057877a22.406539 22.406539 0 0 0-2.293582 3.881448c-1.940724 3.352159-4.234307 6.880748-6.52789 10.409336s-4.940024 7.410036-7.762895 11.115055l-6.880748 10.056478-5.469313 8.645043-1.764294 2.822871v0.882147l-0.882147 1.235006a4.234307 4.234307 0 0 1 0 1.235006l-3.705019 6.35146c-1.235006 2.117153-2.293583 4.410736-3.352159 6.527889a65.984611 65.984611 0 0 0-3.881448 8.997902v1.587865a73.571077 73.571077 0 0 0-2.293582 7.410036 28.934428 28.934428 0 0 1 0-4.057877v-4.234306c-7.410036-29.110858-5.998601-83.274696 17.113655-108.151247z m23.641545 315.632268l-1.940724-5.645742v-4.410736a39.167336 39.167336 0 0 0-4.057877-7.586466 47.459519 47.459519 0 0 0-5.292883-6.527889 113.091271 113.091271 0 0 0-11.820772-9.880049 79.216819 79.216819 0 0 1-7.762896-6.351459 28.052281 28.052281 0 0 1-5.822171-7.586466 129.852068 129.852068 0 0 1-13.761497-58.574575l1.764295 2.646442 22.230109 33.168735 6.880748-39.520195c0-2.9993 1.235006-6.35146 2.117154-9.703619a379.323297 379.323297 0 0 0 5.292883-52.928832 92.449027 92.449027 0 0 1 0-10.056478 42.166636 42.166636 0 0 1 1.587865-7.939325 38.638047 38.638047 0 0 1 2.117153-5.822171 63.514599 63.514599 0 0 1 4.057877-8.645043 47.459519 47.459519 0 0 1 2.822871-5.116454l1.764295-3.17573 2.293582-3.705018 1.411436-2.293583c3.705018-5.998601 7.762895-11.467914 11.467914-17.642944l4.234306-5.822171a185.427342 185.427342 0 0 0 11.644343-17.642944l2.646442-4.234307a45.165937 45.165937 0 0 1 6.35146-7.762895 26.640845 26.640845 0 0 1 21.347962-10.056478 54.340268 54.340268 0 0 1 20.112956 10.938625l3.352159 2.470012c4.587165 3.352159 9.52719 6.527889 14.643644 9.703619s10.409337 5.822172 16.055079 8.645043l8.821472 4.057877c4.410736 1.940724 8.821472 3.528589 13.232208 5.116454a233.23972 233.23972 0 0 0 26.817275 7.762895l9.35076 1.764295h36.697324a215.067488 215.067488 0 0 1 60.338869 7.410036 32.992305 32.992305 0 0 1 9.703619 4.587166 23.641545 23.641545 0 0 1 6.527889 6.704318 4.940024 4.940024 0 0 1 0.882147 1.940724 10.232908 10.232908 0 0 1 0 2.470012 20.818674 20.818674 0 0 1 0 3.528589 20.818674 20.818674 0 0 1 0 3.528589L663.022176 229.361801a199.365268 199.365268 0 0 1 1.940724 20.642244v5.998601a17.642944 17.642944 0 0 1 0 2.999301V301.345013a79.922536 79.922536 0 0 0 0 9.17433 35.285888 35.285888 0 0 0 0 4.587166 19.760097 19.760097 0 0 0 3.17573 6.704319 12.173631 12.173631 0 0 0 1.940723 2.293582 20.642245 20.642245 0 0 0 6.175031 3.881448h1.587865a17.642944 17.642944 0 0 0 15.172932-2.822871 7.939325 7.939325 0 0 0 2.470012-1.764294 15.87865 15.87865 0 0 0 2.646441-3.17573 6.35146 6.35146 0 0 0 1.235007-1.764295 11.820772 11.820772 0 0 0 1.058576-2.117153 92.272597 92.272597 0 0 1-1.235006 17.642944 128.264203 128.264203 0 0 1-2.9993 14.290785l-2.117154 6.880748a115.737713 115.737713 0 0 1-4.940024 12.52649l-2.646442 5.469313a6.35146 6.35146 0 0 1-1.411435 2.117153 13.408637 13.408637 0 0 1-1.411436 1.940724 19.760097 19.760097 0 0 1-3.17573 3.528589 62.632451 62.632451 0 0 1-7.762895 6.527889c-3.17573 2.470012-6.35146 4.763595-9.880049 7.939325l-1.940723 1.940724a31.933729 31.933729 0 0 0-6.52789 8.645042 45.695225 45.695225 0 0 0-5.292883 12.350061 39.696624 39.696624 0 0 0 0 3.881448c-0.882147 2.293583-1.940724 4.587165-2.9993 6.880748a62.103163 62.103163 0 0 1-3.17573 7.057178 172.724422 172.724422 0 0 1-25.582269 38.285188c-3.17573 3.881448-6.704319 7.410036-10.232908 10.938625s-7.233607 6.880748-11.115054 10.056478a141.143552 141.143552 0 0 1-11.820773 9.174331l-2.9993 2.117154a57.868856 57.868856 0 0 1-5.469313 3.528588l-2.646442 1.587865-6.527889 3.705019-6.704319 3.17573a115.737713 115.737713 0 0 1-13.408637 6.17503c-4.587165 1.587865-9.35076 3.528589-14.114355 4.763595a115.208425 115.208425 0 0 1-13.408638 3.528589h-1.058577l-3.352159 0.882147h-15.525791l-4.410736-1.058577a92.625456 92.625456 0 0 1-9.174331-2.9993l-2.822871-0.882147-2.822871-0.882148-6.17503-2.470012-5.998601-2.646441a20.112956 20.112956 0 0 1-5.469313-2.822871l-8.468613-4.057878-9.52719-5.998601-5.116453-3.352159-7.410037-5.469313a118.207725 118.207725 0 0 1-14.290784-12.173631 120.148449 120.148449 0 0 1-6.704319-6.704319v-0.882147a6.704319 6.704319 0 0 1-1.587865-1.587865 28.757999 28.757999 0 0 1-2.999301-3.528589 176.42944 176.42944 0 0 1-33.698023-55.398844z m224.418248 303.811497l-7.057177-6.704319v-1.235006l-40.93163-52.928832-11.997202-15.172932 49.929531-40.755201 38.990906-32.110158 2.117154 5.822172 12.350061 32.110158v1.411435l0.882147 1.940724-38.108759 114.326277v1.058577l-5.469313-7.057178z m-105.857664-120.677738l-75.5118-61.750304v-15.70222c4.587165 3.352159 9.35076 6.704319 13.937925 9.703619s9.703619 5.645742 14.643644 8.292184a47.635949 47.635949 0 0 0 5.998601 2.999301l2.646442 1.411435 2.470012 0.882147 6.17503 2.999301 6.175031 2.293582 6.527889 2.470013 6.527889 1.940723 3.528589 1.235007 8.821472 2.293582 5.469313 1.235006a31.757299 31.757299 0 0 0 5.645742 1.058577 59.98601 59.98601 0 0 0 7.939325 0 60.691727 60.691727 0 0 0 8.115754 0l5.469312-1.058577 8.292184-1.940723 8.468613-2.293583a83.274696 83.274696 0 0 0 9.350761-3.17573 6.704319 6.704319 0 0 0 1.764294 0h1.587865l3.352159-1.058577 3.35216-1.411435 6.35146-2.646442 12.52649-6.17503 10.409337-5.822172c3.352159-2.117153 6.704319-4.234307 9.880048-6.527889l1.940724-1.058577 5.116454-4.057877H609.916914l2.117154-1.587865 1.587865-1.235006 1.587865-1.411435v20.642244L539.521568 604.62722l-25.052981 19.936527z m2.293583 43.578072l-5.469313 7.057178-48.694525 61.573874-12.70292 16.05508L387.792249 617.50657v-1.058577l0.882147-2.999301h1.058577l11.115055-29.816575 2.9993-8.115754 38.814477 31.933728zM130.734554 991.889842V739.419313c47.106661-47.988808 129.675639-85.568279 229.358273-104.622658l55.045985 165.314385 12.70292-16.231508L486.592736 964.19042l1.235006 3.705018 3.881447 11.291484 4.057877 12.70292zM451.306847 753.357239l22.582969-28.934429 37.93233-48.518096 2.646441-3.352159 11.115055 14.290785 30.169434 38.285188 21.171533 26.817275-64.220316 187.015207z m441.955748 238.532603H528.935801l52.928832-156.669343 17.642944-52.928832 14.114356 17.642944L669.020777 635.149514A541.991241 541.991241 0 0 1 839.451616 697.429106a306.457938 306.457938 0 0 1 28.934428 19.583668 205.540298 205.540298 0 0 1 24.347263 21.171533z"  /><path fill="#333333" d="M576.924609 752.122233l-64.220316 187.015206 43.578071-127.382056 20.642245-59.63315z"  /></svg>